# xmcd
#
# Track frame offsets:
#	150
#	14293
#	38161
#	51236
#	62852
#	78054
#	90440
#	110079
#
# Disc length: 1755 seconds
#
# Revision: 1
# Processed by: cddbd v1.5.2PL0 Copyright (c) Steve Scherf et al.
# Submitted via: audiograbber 1.83.01
#
DISCID=5c06d908
DTITLE=Woman - Woman
DYEAR=2009
DGENRE=noise rock
TTITLE0=When The Wheel's Red
TTITLE1=Gaol Inside My Heart
TTITLE2=The Perfect Night
TTITLE3=Eat DNA
TTITLE4=Phosphorescent Glow
TTITLE5=Fall Into The Fall
TTITLE6=Heavy Water
TTITLE7=Icy Drone
EXTD=
EXTT0=
EXTT1=
EXTT2=
EXTT3=
EXTT4=
EXTT5=
EXTT6=
EXTT7=
PLAYORDER=
